<?xml version="1.0" encoding="UTF-8"?><svg id="Layer_1" xmlns="http://www.w3.org/2000/svg" xmlns:xlink="http://www.w3.org/1999/xlink" viewBox="0 0 70 70"><defs><style>.cls-1{fill:url(#linear-gradient);}.cls-2{fill:#0a4ab9;}.cls-3{fill:url(#New_Gradient_Swatch_1);}.cls-4{fill:url(#radial-gradient);}</style><linearGradient id="linear-gradient" x1="35.08" y1="133.28" x2="35.08" y2="99.02" gradientTransform="translate(0 -83.28)" gradientUnits="userSpaceOnUse"><stop offset="0" stop-color="#addcff"/><stop offset=".5" stop-color="#eaf6ff"/><stop offset="1" stop-color="#eaf6ff"/></linearGradient><linearGradient id="New_Gradient_Swatch_1" x1="50.56" y1="24.14" x2="50.56" y2="55.54" gradientUnits="userSpaceOnUse"><stop offset=".09" stop-color="#31a2ff"/><stop offset=".89" stop-color="#144b94"/></linearGradient><radialGradient id="radial-gradient" cx="50.63" cy="41.16" fx="50.63" fy="41.16" r="4.64" gradientUnits="userSpaceOnUse"><stop offset="0" stop-color="#f0fff4"/><stop offset="1" stop-color="#76c7ff"/></radialGradient></defs><g><path class="cls-2" d="m34.29,56.29c-5.58,0-10.86-2.19-14.83-6.17s-6.17-9.24-6.17-14.84c0-2.84.56-5.6,1.67-8.2.2-.47.67-.76,1.18-.75s.95.36,1.12.84l1.08,3.25,2.02,1.34.4-4c.04-.42.29-.79.68-.98l4.54-2.26,1.08-2.39c.13-.29.37-.52.67-.63l2.03-.81-3.64-2.74c-.36-.27-.54-.7-.48-1.14.06-.44.35-.82.75-.98,2.51-1.03,5.18-1.55,7.9-1.55,7.56,0,14.59,4.13,18.32,10.76.18.32.21.7.08,1.04s-.41.61-.75.73l-4.35,1.49c-.19.07-.4.09-.61.05l-4.08-.68c-.34-.05-.63-.25-.82-.53l-.75-1.12-4.68,2.45,2.83.68c.31.07.58.26.75.53l1.39,2.15,1.86-.47c.34-.09.69-.03.98.17l2.04,1.36c.34.23.55.62.55,1.02v2.24l3.61,3.9c.21.23.33.53.33.83v6.65c0,.28-.1.55-.27.76-1.93,2.42-4.41,4.42-7.17,5.79-2.89,1.44-6.01,2.17-9.25,2.17h0Z"/><path class="cls-1" d="m52.61,25.05c-.29-.52-.91-.75-1.47-.56l-4.06,1.4-3.24-.54-1.06-1.6c-.35-.52-1.04-.7-1.6-.41l-8.57,4.5c-.45.23-.71.74-.65,1.24.06.51.43.93.94,1.04l5.55,1.32,1.6,2.48c.29.44.82.66,1.34.53l2.19-.55,1.03.69v2.06c0,.31.11.61.33.83l3.61,3.9v6.17c0,.52.33.99.82,1.16.13.04.27.07.41.07.36,0,.73-.16.96-.47,1.45-1.82,2.58-3.84,3.36-6.02.81-2.25,1.21-4.61,1.21-7.02,0-3.58-.94-7.12-2.69-10.24Zm-18.77,12.34l-3.84-.77-3.24-3.56c-.23-.26-.57-.41-.93-.4l-3.09.04.4-3.99,4.32-2.16c.25-.13.45-.34.57-.59l1.06-2.34,3.61-1.43c.42-.16.71-.54.76-.98.06-.44-.12-.88-.48-1.14l-5.39-4.07c-.35-.26-.81-.32-1.21-.16-5.09,2.09-9.25,6.18-11.42,11.25-.12.28-.13.59-.03.88l1.21,3.65c.09.26.26.49.49.63l3.52,2.35v2.64c0,.32.12.62.35.86l3.04,3.13v3.48c0,.29.1.56.29.79l3.39,4.08c.23.29.59.44.95.44.14,0,.28-.03.42-.07.49-.17.82-.64.82-1.15v-2.78l2.22-1.67c.31-.23.49-.6.49-.99v-1.53l2.36-2.36c.32-.32.44-.79.3-1.22-.12-.44-.48-.77-.93-.86h0Z"/></g><path class="cls-3" d="m50.56,32.43c-4.81,0-8.74,3.93-8.74,8.74,0,1.68.44,3.42,1.36,5.25.7,1.46,1.71,2.91,2.94,4.4,2.09,2.5,4.18,4.12,4.24,4.18.06.03.13.06.19.06s.16-.03.19-.06c.09-.06,2.15-1.68,4.24-4.18,1.23-1.49,2.22-2.94,2.94-4.4.89-1.8,1.36-3.58,1.36-5.25,0-4.81-3.93-8.74-8.74-8.74Zm0,5.73c1.68,0,3.01,1.36,3.01,3.01s-1.36,3.01-3.01,3.01-3.01-1.36-3.01-3.01,1.33-3.01,3.01-3.01Z"/><g><circle class="cls-4" cx="50.63" cy="41.16" r="4.64"/><path class="cls-2" d="m50.28,37.23h.71v.89h-.71v-.89Zm0,6.97h.71v.89h-.71v-.89Zm3.39-3.39h.89v.71h-.89v-.71Zm-6.97,0h.89v.71h-.89v-.71Zm5.51,2.65l-1.85-2.05c-.06-.07-.09-.15-.09-.24v-1.61h.71v1.47l1.75,1.95-.53.48Z"/></g></svg>