<?xml version="1.0" encoding="UTF-8"?><svg id="Layer_1" xmlns="http://www.w3.org/2000/svg" xmlns:xlink="http://www.w3.org/1999/xlink" viewBox="0 0 70 70"><defs><style>.cls-1{fill:#009fe8;}.cls-2{fill:#e9efff;}.cls-3{fill:#aeb5ba;}.cls-4{fill:#0a4ab9;}.cls-5{fill:#2d88e2;}.cls-6{fill:url(#radial-gradient);}</style><radialGradient id="radial-gradient" cx="40.27" cy="40.09" fx="40.27" fy="40.09" r="2.5" gradientUnits="userSpaceOnUse"><stop offset="0" stop-color="#f0fff4"/><stop offset="1" stop-color="#76c7ff"/></radialGradient></defs><path class="cls-4" d="m23.56,52.76h25c1.38,0,2.5-1.12,2.5-2.5V17.77c0-1.38-1.12-2.5-2.5-2.5h-25c-1.38,0-2.5,1.12-2.5,2.5v32.49c0,1.38,1.12,2.5,2.5,2.5Z"/><path class="cls-2" d="m48.56,47.12v-26.22c0-.3-.21-.55-.5-.61-1.02-.2-1.83-1.02-2.03-2.03-.06-.29-.32-.5-.61-.5h-18.72c-.29,0-.55.2-.61.49-.21,1-1.05,1.82-2.03,2.03-.29.06-.49.32-.49.61v26.22c0,.29.21.55.49.61.99.21,1.82,1.03,2.03,2.03.06.29.32.49.61.49h18.72c.29,0,.55-.21.61-.49.21-.99,1.03-1.82,2.03-2.03.29-.06.49-.32.49-.61h0Z"/><path class="cls-5" d="m40.6,44.48l-1.7,2.97c-.23.4-.81.42-1.06.03l-.81-1.23c-.11-.16-.29-.27-.48-.28l-1.47-.09c-.46-.03-.74-.53-.5-.94l1.7-2.97,4.33,2.5Z"/><path class="cls-5" d="m39.92,44.48l1.72,2.97c.23.4.81.42,1.06.03l.81-1.23c.11-.16.29-.27.48-.28l1.47-.09c.46-.03.74-.53.5-.94l-1.72-2.97-4.33,2.5Z"/><circle class="cls-1" cx="40.27" cy="40.08" r="5"/><circle class="cls-6" cx="40.27" cy="40.09" r="2.5"/><path class="cls-3" d="m40.45,21.52h-8.79c-.33,0-.6.27-.6.6v1.29c0,.33.27.6.6.6h8.79c.33,0,.6-.27.6-.6v-1.29c0-.33-.27-.6-.6-.6h0Z"/><path class="cls-3" d="m43.56,27.06h-15c-.3,0-.55-.24-.55-.55s.24-.55.55-.55h15c.3,0,.55.24.55.55s-.24.55-.55.55h0Zm0,2.5h-15c-.3,0-.55-.24-.55-.55s.24-.55.55-.55h15c.3,0,.55.24.55.55s-.24.55-.55.55h0Zm0,2.5h-15c-.3,0-.55-.24-.55-.55s.24-.55.55-.55h15c.3,0,.55.24.55.55s-.24.55-.55.55h0Z"/></svg>