<?xml version="1.0" encoding="UTF-8"?><svg id="Layer_1" xmlns="http://www.w3.org/2000/svg" xmlns:xlink="http://www.w3.org/1999/xlink" viewBox="0 0 70 70"><defs><style>.cls-1{fill:url(#linear-gradient);}.cls-2{fill:#009fe8;}.cls-3{fill:#fff;}.cls-4{fill:#0a4ab9;}</style><linearGradient id="linear-gradient" x1="50.02" y1="4.09" x2="50.02" y2="22.11" gradientUnits="userSpaceOnUse"><stop offset=".31" stop-color="#31a2ff"/><stop offset=".89" stop-color="#144b94"/></linearGradient></defs><path class="cls-4" d="m17.62,25.47c-.43-.03-.83-.23-1.12-.6-.52-.68-.4-1.64.28-2.17,5.57-4.3,12.68-5.75,19.54-3.97.83.21,1.32,1.06,1.11,1.88-.21.83-1.05,1.32-1.88,1.11-5.93-1.55-12.07-.29-16.88,3.42-.31.24-.69.35-1.05.32h0Z"/><path class="cls-4" d="m15.01,33.17c-.3-.02-.6-.13-.85-.33-.67-.53-.78-1.51-.25-2.17,5.41-6.8,14.45-9.65,22.49-7.07.81.26,1.26,1.13,1.01,1.94-.26.81-1.13,1.27-1.94,1-6.83-2.19-14.52.24-19.13,6.04-.34.42-.83.62-1.32.59Z"/><path class="cls-4" d="m25.53,56.85c-.39-.03-.77-.2-1.05-.52-.25-.29-6.21-7.1-5.78-13.29.44-6.47,6.01-11.36,12.42-10.92,6.41.43,11.26,6.05,10.82,12.52-.06.85-.79,1.5-1.65,1.44-.85-.06-1.5-.79-1.44-1.65.33-4.76-3.24-8.89-7.95-9.21s-8.8,3.29-9.12,8.05c-.34,4.9,4.97,10.98,5.02,11.04.56.64.5,1.61-.14,2.18-.32.27-.72.4-1.12.37h0Z"/><path class="cls-4" d="m18.19,54.06c-.44-.03-.88-.26-1.16-.65-2.22-3.16-3.27-6.85-3.01-10.69.31-4.54,2.5-8.8,6.02-11.67,3.53-2.88,7.94-4.12,12.46-3.52,2.3.31,4.46,1.11,6.4,2.38.72.46.92,1.42.45,2.14-.46.72-1.42.93-2.15.45-1.57-1.01-3.29-1.65-5.13-1.9-3.67-.5-7.23.52-10.09,2.85s-4.64,5.79-4.89,9.48c-.21,3.11.63,6.12,2.45,8.7.49.7.33,1.66-.38,2.16-.28.2-.64.3-.98.27h0Z"/><path class="cls-4" d="m33.27,57.39c-3.04-.21-9.69-6.33-9.95-12.65-.09-2.28.77-4.47,2.34-5.99,1.39-1.35,3.21-2.04,5.1-1.92,1.79.06,3.52.91,4.69,2.24.93,1.05,1.99,2.96,1.78,6.04-.12,1.74,1.18,3.26,2.89,3.37,1.56.11,3.21-.96,3.35-3.2.16-2.46-.3-4.91-1.34-7.1-.16-.26-.24-.57-.22-.9.06-.85.78-1.5,1.63-1.44h.02c.55.04,1.04.37,1.29.86,1.32,2.72,1.91,5.75,1.71,8.79-.29,4.22-3.64,6.28-6.66,6.08-3.41-.23-6-3.23-5.76-6.67.11-1.59-.24-2.91-1.01-3.79-.79-.91-1.84-1.11-2.55-1.2-1.3-.09-2.21.52-2.75,1.05-.94.91-1.46,2.28-1.41,3.66.2,4.97,5.8,9.6,7.08,9.69.85.06,1.5.79,1.44,1.65-.06.84-.8,1.49-1.65,1.43h0Z"/><path class="cls-4" d="m38,55.35c-4.56-.31-9.71-5.92-9.27-12.41.06-.85.79-1.5,1.65-1.44.85.06,1.5.79,1.44,1.65-.33,4.77,3.63,8.92,6.4,9.11.85.06,1.5.79,1.44,1.65-.08.85-.81,1.49-1.66,1.43h0Z"/><path class="cls-1" d="m60.2,13.51c-4.7,0-9.56-4.35-9.61-4.4-.32-.29-.81-.29-1.14,0-.05.05-4.9,4.4-9.61,4.4-.46,0-.85.38-.85.85v10.16c0,8.23,6.12,11.52,10.73,13.27.1.04.2.06.3.06.11,0,.2-.02.3-.06,6.46-2.46,10.73-6.31,10.73-13.27v-10.16c0-.47-.39-.85-.85-.85Z"/><g><rect class="cls-2" x="41.06" y="19.58" width="17.92" height="7.57" rx="2.06" ry="2.06"/><g><path class="cls-3" d="m47.25,25.55v-3.15l-1.23,3.15h-.41l-1.23-3.15v3.15h-.93v-4.37h1.3l1.06,2.73,1.06-2.73h1.31v4.37h-.94Z"/><path class="cls-3" d="m49.05,25.55v-4.37h3.09v.82h-2.16v.92h2.11v.82h-2.11v1.81h-.93Z"/><path class="cls-3" d="m55.53,25.55l-.28-.74h-1.87l-.28.74h-1.05l1.68-4.37h1.17l1.68,4.37h-1.05Zm-1.21-3.44l-.68,1.88h1.36l-.68-1.88Z"/></g></g></svg>