<?xml version="1.0" encoding="UTF-8"?><svg id="Layer_1" xmlns="http://www.w3.org/2000/svg" xmlns:xlink="http://www.w3.org/1999/xlink" viewBox="0 0 70 70"><defs><style>.cls-1{fill:url(#linear-gradient);}.cls-2{fill:#f5911e;}.cls-3{fill:#00c3ff;}.cls-4{fill:#00aaf0;}.cls-5{fill:#ef5a28;}.cls-6{fill:url(#linear-gradient-3);}.cls-7{fill:url(#linear-gradient-2);}</style><linearGradient id="linear-gradient" x1="54.79" y1="881.23" x2="54.79" y2="819.02" gradientTransform="translate(0 880.72) scale(1 -1)" gradientUnits="userSpaceOnUse"><stop offset=".09" stop-color="#31a2ff"/><stop offset=".89" stop-color="#144b94"/></linearGradient><linearGradient id="linear-gradient-2" x1="43" y1="844.42" x2="68.45" y2="852.6" gradientTransform="translate(0 880.72) scale(1 -1)" gradientUnits="userSpaceOnUse"><stop offset=".12" stop-color="#808083"/><stop offset=".47" stop-color="#e5e6e7"/><stop offset=".86" stop-color="#919396"/></linearGradient><linearGradient id="linear-gradient-3" x1="62.41" y1="847.99" x2="44.63" y2="833.24" gradientTransform="translate(0 880.72) scale(1 -1)" gradientUnits="userSpaceOnUse"><stop offset=".06" stop-color="#ffdc40"/><stop offset=".77" stop-color="#f5911e"/></linearGradient></defs><g><path class="cls-3" d="m53.99,30.51c-.79,0-1.56.08-2.31.25-.95-7.5-7.33-13.3-15.1-13.3-4.63,0-8.77,2.08-11.56,5.34-1.46-.63-3.07-.99-4.75-.99-5.76,0-10.57,4.07-11.71,9.51-3.97,1.62-6.77,5.52-6.77,10.06,0,6.01,4.86,10.87,10.87,10.87h41.33c6.01,0,10.87-4.86,10.87-10.87s-4.86-10.87-10.87-10.87Z"/><path class="cls-4" d="m51.27,46.81h-26.83c-5.51,0-10.3-4.15-10.66-9.65-.39-6.02,4.38-11.01,10.32-11.01.46,0,.91.03,1.35.08.95.13,1.88-.4,2.23-1.28,1.64-4.07,5.45-7.04,9.99-7.44-.36-.03-.72-.06-1.09-.06-4.63,0-8.77,2.08-11.56,5.34-1.46-.63-3.07-.99-4.75-.99-5.76,0-10.57,4.07-11.71,9.51-4.28,1.74-7.19,6.12-6.73,11.11.53,5.65,5.49,9.84,11.17,9.84h38.26c1.51,0,2.72-1.21,2.72-2.72h0c0-1.51-1.21-2.72-2.72-2.72h.01Z"/></g><g><path class="cls-1" d="m66.27,25.65c-5.29,0-10.79-4.91-10.84-4.96-.36-.34-.93-.34-1.29,0-.06.05-5.53,4.96-10.84,4.96-.53,0-.96.43-.96.96v11.46c0,9.29,6.9,12.99,12.1,14.98.11.04.23.06.34.06s.23-.02.34-.06c7.29-2.78,12.1-7.12,12.1-14.98v-11.46c0-.53-.43-.96-.96-.96h.01Z"/><g><path class="cls-7" d="m54.79,28.36c-2.18,0-3.95,1.77-3.95,3.95v3.3h1.97v-3.3c0-1.09.89-1.97,1.97-1.97s1.97.89,1.97,1.97v3.3h1.97v-3.3c0-2.18-1.77-3.95-3.95-3.95Z"/><path class="cls-6" d="m58.73,44h-7.9c-1.09,0-1.97-.89-1.97-1.97v-5.93c0-1.09.89-1.97,1.97-1.97h7.9c1.09,0,1.97.89,1.97,1.97v5.93c0,1.09-.89,1.97-1.97,1.97Z"/><path class="cls-5" d="m56.1,37.74c0-.72-.59-1.31-1.31-1.31s-1.31.59-1.31,1.31c0,.48.26.91.66,1.14v2.15c0,.36.3.66.66.66s.66-.3.66-.66v-2.15c.4-.23.66-.65.66-1.14h-.02Z"/><path class="cls-2" d="m51.72,37.74h-2.85v-1.31h2.85c.36,0,.66.3.66.66s-.3.66-.66.66h0Z"/><path class="cls-2" d="m51.72,41.7h-2.85v-1.31h2.85c.36,0,.66.3.66.66s-.3.66-.66.66h0Z"/><path class="cls-2" d="m51.72,39.71h-2.85v-1.31h2.85c.36,0,.66.3.66.66s-.3.66-.66.66h0Z"/><path class="cls-2" d="m57.85,37.74h2.85v-1.31h-2.85c-.36,0-.66.3-.66.66s.3.66.66.66h0Z"/><path class="cls-2" d="m57.85,41.7h2.85v-1.31h-2.85c-.36,0-.66.3-.66.66s.3.66.66.66h0Z"/><path class="cls-2" d="m57.85,39.71h2.85v-1.31h-2.85c-.36,0-.66.3-.66.66s.3.66.66.66h0Z"/></g></g></svg>